<?xml version="1.0" standalone="no"?>
<!DOCTYPE svg PUBLIC "-//W3C//DTD SVG 20010904//EN"
 "http://www.w3.org/TR/2001/REC-SVG-20010904/DTD/svg10.dtd">
<svg version="1.0" xmlns="http://www.w3.org/2000/svg"
 width="400.000000pt" height="175.000000pt" viewBox="0 0 400.000000 175.000000"
 preserveAspectRatio="xMidYMid meet">

<g transform="translate(0.000000,175.000000) scale(0.100000,-0.100000)"
fill="#000000" stroke="none">
<path d="M2055 1685 c-25 -8 -32 -13 -20 -14 11 -1 51 -13 89 -26 38 -13 76
-21 85 -18 12 4 13 2 3 -4 -10 -7 -8 -14 8 -28 12 -11 18 -25 15 -34 -5 -12
-3 -13 5 -5 9 9 9 18 0 35 -9 20 -9 22 2 9 10 -11 25 -14 63 -9 48 6 47 9 -5
14 -24 3 -138 46 -170 64 -8 5 -14 14 -12 20 3 14 -12 13 -63 -4z"/>
<path d="M1928 1683 c6 -2 18 -2 25 0 6 3 1 5 -13 5 -14 0 -19 -2 -12 -5z"/>
<path d="M2620 1620 c8 -6 34 -15 57 -21 25 -7 40 -16 36 -22 -4 -7 -77 -8
-225 -4 l-219 7 -30 -35 c-17 -19 -35 -35 -41 -35 -5 0 -2 7 6 16 24 23 19 28
-9 10 -31 -21 -41 -20 -24 0 12 15 11 16 -8 10 -14 -5 -40 0 -69 13 -26 12
-53 21 -61 21 -8 0 -12 4 -9 9 8 13 -16 19 -39 11 -11 -4 -74 -6 -140 -4 -133
3 -113 -2 115 -29 100 -13 122 -19 173 -49 71 -43 62 -59 -28 -47 -157 20
-453 1 -649 -41 -312 -68 -570 -211 -683 -378 -21 -31 -43 -61 -49 -67 -6 -5
-17 -19 -23 -30 -11 -18 -12 -17 -6 8 l5 27 -113 0 -114 0 -39 -35 -39 -34 43
-1 c23 0 42 -2 42 -4 0 -2 -7 -20 -15 -39 -20 -49 -19 -54 12 -51 16 1 33 2
39 3 6 1 17 19 24 42 13 39 34 59 47 45 3 -3 -1 -24 -10 -46 -8 -22 -12 -40
-9 -41 49 -6 58 -4 80 20 22 23 24 24 13 4 -6 -13 -8 -24 -4 -24 4 -1 14 -2
22 -3 9 0 19 -23 27 -58 17 -73 46 -130 92 -180 45 -49 176 -137 257 -173 71
-32 262 -95 287 -95 10 0 18 -3 18 -6 0 -11 -91 -135 -152 -208 -32 -38 -57
-71 -55 -72 3 -4 216 81 289 114 26 12 49 22 53 22 24 0 235 144 319 217 26
24 58 43 70 43 17 0 18 2 6 10 -11 7 -11 10 -2 10 7 0 17 10 22 23 8 21 9 21
9 -5 1 -26 2 -26 59 -21 31 3 72 9 90 13 20 5 44 5 60 -1 14 -5 32 -7 39 -5
16 7 73 122 74 151 0 11 7 36 15 55 l14 35 -6 -32 c-4 -23 -2 -33 7 -33 9 0 8
-4 -3 -12 -15 -13 -39 -83 -42 -125 0 -12 -5 -21 -10 -20 -5 1 -10 -3 -13 -9
-11 -32 38 -2 96 58 36 38 73 71 83 74 25 7 23 23 -2 17 -11 -3 -37 -1 -57 3
-34 8 -30 9 42 14 l80 5 24 44 c37 67 38 29 2 -40 -32 -61 -39 -89 -21 -89 6
0 10 4 10 8 0 4 9 8 21 9 12 1 27 10 34 20 12 16 11 18 -11 21 -35 5 -30 22 7
22 28 0 31 2 25 25 -4 15 -1 34 8 48 8 12 17 40 21 62 6 37 5 39 -9 21 -9 -11
-19 -17 -23 -13 -11 12 29 47 54 47 24 0 31 -18 12 -37 -6 -6 -9 -26 -7 -44 6
-70 70 -39 87 43 l7 32 108 -2 c60 0 111 -3 114 -6 2 -3 14 0 25 6 16 8 23 7
33 -6 9 -13 13 -14 17 -4 3 10 9 11 25 1 18 -11 20 -10 15 3 -5 15 -3 14 21
-1 22 -14 25 -15 21 -2 -5 11 0 14 22 13 15 -2 38 -8 50 -14 26 -14 44 -16 23
-2 -12 8 -9 9 12 8 15 -1 24 -6 22 -10 -3 -4 -2 -8 3 -9 4 0 18 -2 30 -3 12
-1 20 1 18 4 -3 4 4 18 15 30 11 13 20 19 20 14 -1 -15 -39 -80 -40 -66 0 6
-5 12 -11 12 -6 0 -8 -8 -5 -17 3 -10 1 -25 -5 -33 -8 -12 -9 -11 -5 5 3 11 2
26 -3 34 -6 9 -8 4 -7 -17 1 -17 5 -34 8 -38 4 -4 5 -18 2 -30 -11 -44 11 -24
38 34 50 103 54 106 155 109 48 1 91 2 94 3 3 0 12 19 20 43 7 24 30 58 54 80
l40 38 -143 -3 c-78 -2 -142 -2 -142 -2 0 1 -7 41 -15 88 -15 87 -36 138 -75
186 -18 23 -18 20 4 -35 34 -84 40 -99 41 -110 1 -5 4 -17 8 -25 14 -39 16
-50 6 -50 -6 0 -6 -6 0 -19 13 -23 -2 -31 -59 -31 -35 0 -38 2 -44 34 -4 19
-14 40 -23 47 -15 13 -15 12 -4 -10 17 -32 -2 -50 -65 -62 -57 -11 -76 1 -45
27 11 10 21 25 21 32 0 9 8 5 21 -9 13 -16 19 -18 16 -8 -25 78 -29 101 -23
123 8 33 23 33 59 -1 l29 -28 -7 35 c-4 19 -16 54 -26 76 -25 57 -97 146 -111
138 -6 -4 -8 -3 -5 3 3 5 -5 22 -19 37 -22 23 -28 25 -42 14 -13 -11 -15 -10
-9 4 3 10 22 43 42 73 19 31 35 56 35 58 0 1 -60 2 -133 2 -117 1 -141 4 -211
28 -84 29 -100 32 -76 17z m-55 -80 c99 -10 56 -15 -156 -18 l-115 -2 -75 -72
c-92 -90 -107 -102 -194 -157 -101 -64 -210 -112 -223 -99 -8 8 18 26 91 62
124 62 240 144 327 231 l64 65 106 -1 c58 -1 137 -5 175 -9z m400 -5 c-33 -16
-158 -19 -245 -7 l-55 7 55 6 c30 3 105 6 165 7 101 0 107 -1 80 -13z m-855
-94 c15 -4 20 -10 13 -14 -6 -4 -26 0 -44 8 -36 15 -16 19 31 6z m894 -26 c16
-25 16 -25 -2 -14 -10 6 -19 18 -19 25 0 19 2 18 21 -11z m-996 9 c51 -4 92
-11 92 -16 0 -6 -18 -7 -42 -3 l-43 6 25 -21 25 -21 -40 19 c-22 11 -55 23
-72 27 -32 6 -33 5 -33 -24 0 -31 0 -31 58 -33 l57 -2 -57 -3 c-57 -4 -58 -5
-58 -33 0 -17 -4 -30 -10 -30 -5 0 -10 14 -10 30 l0 30 -79 0 -79 0 -41 -46
c-23 -26 -41 -51 -41 -55 0 -5 32 -9 72 -9 39 0 68 -3 64 -7 -4 -4 -40 -6 -80
-4 l-73 2 -28 -68 c-15 -37 -31 -78 -36 -90 -8 -22 -12 -23 -154 -23 l-146 0
-10 -30 c-6 -16 -15 -30 -21 -30 -6 0 -7 8 -3 18 4 9 9 23 12 30 4 9 -20 12
-100 12 l-105 0 -12 -30 c-7 -16 -16 -27 -21 -24 -5 3 -2 16 7 30 l16 24 -66
0 c-59 0 -67 -2 -82 -25 -9 -14 -19 -23 -22 -21 -2 3 13 28 34 57 138 188 462
327 834 358 146 12 165 12 268 5z m1051 -119 c14 -24 17 -37 9 -41 -6 -4 -8
-3 -4 4 9 15 -7 23 -24 12 -8 -5 -15 -25 -16 -44 0 -19 -7 -42 -14 -51 -16
-19 -74 -20 -90 0 -7 9 -19 14 -26 11 -7 -3 -22 7 -33 22 -11 15 -23 24 -26
20 -4 -4 0 -14 9 -23 22 -22 20 -32 -2 -12 -17 15 -20 15 -37 -1 -11 -10 -9
-3 6 18 14 19 39 58 54 85 16 28 40 65 53 82 l24 33 48 -40 c27 -22 57 -56 69
-75z m1 50 c7 -8 9 -15 4 -15 -5 0 -1 -5 9 -11 19 -11 23 -29 7 -29 -6 0 -16
12 -23 28 -6 15 -16 30 -22 34 -6 5 -6 8 1 8 6 0 17 -7 24 -15z m60 -104 c0
-5 7 -17 16 -25 14 -15 14 -16 -6 -13 -12 2 -25 10 -30 17 -7 11 -11 11 -24 1
-8 -7 -21 -11 -28 -8 -7 3 2 12 22 20 41 19 50 20 50 8z m-708 -54 c-33 -35
-130 -73 -145 -57 -8 8 -8 14 -2 17 6 2 39 17 75 32 82 37 101 39 72 8z m658
-16 c0 -12 -2 -13 -9 -3 -6 11 -10 10 -15 -4 -6 -15 -9 -16 -16 -5 -4 8 -6 20
-3 26 6 18 43 6 43 -14z m-13 -53 c-3 -7 -5 -2 -5 12 0 14 2 19 5 13 2 -7 2
-19 0 -25z m-337 6 c0 -11 -5 -14 -16 -10 -9 3 -20 6 -25 6 -6 0 -7 5 -4 10
10 16 45 12 45 -6z m240 6 c0 -5 -2 -10 -4 -10 -3 0 -8 5 -11 10 -3 6 -1 10 4
10 6 0 11 -4 11 -10z m-1162 -37 c-6 -7 -8 -21 -5 -32 3 -12 -1 -18 -11 -17
-9 0 -17 -8 -19 -19 -1 -11 0 -14 3 -6 5 11 8 11 15 0 8 -12 11 -11 19 1 5 8
10 10 10 5 0 -6 17 -10 38 -9 20 1 43 -3 51 -9 12 -9 13 -9 7 1 -5 8 1 12 18
12 14 0 26 -6 26 -12 0 -9 3 -9 9 1 8 13 12 13 27 0 15 -12 16 -12 9 0 -7 12
-1 13 30 8 28 -5 44 -2 56 9 14 12 17 13 22 1 13 -33 -8 -38 -161 -38 -83 1
-153 -3 -156 -8 -3 -4 -24 -3 -46 3 -33 8 -50 7 -85 -5 -33 -12 -42 -13 -38
-3 4 10 -4 12 -31 7 -20 -3 -36 -3 -36 0 0 3 14 19 31 36 28 28 34 30 64 22
46 -13 130 27 140 66 5 21 8 24 15 13 5 -9 5 -19 -2 -27z m345 22 c-3 -9 -8
-14 -10 -11 -3 3 -2 9 2 15 9 16 15 13 8 -4z m673 -16 c-17 -5 -32 -6 -35 -4
-2 3 1 5 7 5 7 0 12 7 12 15 0 13 4 14 23 4 22 -12 22 -13 -7 -20z m94 10 c0
-5 -7 -9 -15 -9 -15 0 -20 12 -9 23 8 8 24 -1 24 -14z m-389 -6 c13 -16 12
-17 -3 -4 -17 13 -22 21 -14 21 2 0 10 -8 17 -17z m479 7 c0 -5 -10 -10 -22
-10 -19 0 -20 2 -8 10 19 13 30 13 30 0z m-633 -22 c-3 -8 -6 -5 -6 6 -1 11 2
17 5 13 3 -3 4 -12 1 -19z m336 2 c3 -3 -10 -6 -28 -6 -19 0 -32 2 -30 6 4 7
51 7 58 0z m67 -10 c0 -5 -2 -10 -4 -10 -3 0 -8 5 -11 10 -3 6 -1 10 4 10 6 0
11 -4 11 -10z m-649 -31 c-5 -13 -10 -19 -10 -12 -1 15 10 45 15 40 3 -2 0
-15 -5 -28z m159 21 c0 -5 -2 -10 -4 -10 -3 0 -8 5 -11 10 -3 6 -1 10 4 10 6
0 11 -4 11 -10z m37 -30 c4 0 15 8 25 17 17 15 18 16 12 0 -5 -13 0 -16 23
-16 15 0 76 0 136 -1 59 -1 122 1 140 4 28 6 30 5 13 -6 -11 -7 -28 -21 -38
-30 -13 -13 -33 -18 -75 -17 -48 1 -53 3 -28 9 28 7 28 7 -7 5 -20 -2 -41 2
-47 8 -7 7 -8 4 -5 -9 5 -19 1 -19 -73 -13 -54 4 -90 2 -115 -7 -22 -7 -38 -9
-38 -4 0 6 -10 11 -22 11 -16 1 -18 3 -6 6 9 2 21 17 27 34 11 31 26 41 17 11
-4 -13 0 -18 14 -19 11 -1 18 2 15 8 -4 5 -1 9 4 9 6 0 12 8 12 18 1 16 2 16
6 0 2 -10 7 -18 10 -18z m426 5 c-17 -12 -16 -14 10 -20 15 -4 27 -11 27 -16
0 -5 7 -9 15 -9 8 0 15 5 15 12 0 9 3 9 12 0 7 -7 17 -12 23 -12 5 0 3 5 -5
11 -12 9 -12 10 -1 7 8 -3 17 -10 19 -16 5 -17 -84 -16 -92 1 -5 10 -7 10 -12
0 -3 -7 -19 -13 -35 -13 l-29 0 17 28 c26 40 37 51 46 45 5 -3 0 -11 -10 -18z
m57 -10 c0 -5 -5 -3 -10 5 -5 8 -10 20 -10 25 0 6 5 3 10 -5 5 -8 10 -19 10
-25z m115 -15 c3 -6 -1 -7 -10 -4 -11 5 -14 2 -9 -10 4 -11 1 -16 -12 -16 -16
0 -17 2 -4 10 13 9 13 10 0 10 -13 0 -13 1 0 10 19 12 27 12 35 0z m53 -17
c-6 -7 -12 -13 -13 -13 -2 0 -5 6 -8 13 -3 7 3 13 14 13 13 0 15 -3 7 -13z
m58 -16 c8 -4 14 -13 14 -18 0 -6 -7 -3 -16 5 -8 9 -22 16 -30 16 -12 0 -12 3
-2 14 9 10 14 11 17 3 2 -7 10 -16 17 -20z m159 3 c3 -5 1 -10 -4 -10 -6 0
-11 5 -11 10 0 6 2 10 4 10 3 0 8 -4 11 -10z m-2575 -30 c-1 -15 -18 -28 -40
-31 -19 -3 -28 -15 -41 -49 -12 -31 -23 -46 -38 -48 -25 -4 -26 4 -6 51 19 47
19 47 -11 47 -22 0 -24 2 -14 15 13 15 150 30 150 15z m66 -5 c-3 -8 -9 -21
-12 -29 -4 -10 2 -12 22 -8 15 3 29 13 31 23 3 11 8 19 12 20 3 0 14 2 24 4
20 4 19 -3 -13 -85 -13 -32 -24 -46 -40 -48 -20 -3 -22 -1 -16 22 6 23 3 26
-18 26 -17 0 -26 -7 -30 -25 -5 -18 -13 -25 -31 -25 -14 0 -25 1 -25 3 0 5 46
113 53 125 12 18 51 16 43 -3z m264 8 c0 -23 -18 -33 -64 -35 -43 -1 -45 -2
-13 -5 20 -2 37 -7 37 -11 -1 -19 -19 -31 -55 -35 -40 -4 -40 -4 8 -5 50 -2
50 -2 41 -26 -5 -13 -22 -16 -76 -16 -52 0 -69 3 -65 13 3 6 13 32 22 57 26
66 29 67 100 66 36 0 65 -2 65 -3z m110 1 c0 -3 -5 -14 -10 -25 -14 -26 -3
-24 36 6 29 22 64 33 64 20 0 -3 -14 -18 -32 -34 -30 -27 -32 -30 -21 -65 11
-35 11 -36 -17 -36 -22 0 -31 6 -38 28 l-10 27 -11 -27 c-7 -20 -18 -28 -36
-28 -27 0 -27 -2 13 90 14 32 26 46 41 47 11 1 21 -1 21 -3z m164 -16 c-26
-86 -42 -113 -68 -116 l-26 -3 20 52 c31 78 39 89 61 89 17 0 19 -4 13 -22z
m92 12 c9 0 14 -11 15 -32 l1 -33 14 33 c14 32 39 51 51 39 3 -3 -5 -35 -18
-71 -23 -63 -25 -66 -56 -66 -31 0 -33 2 -34 38 l-1 37 -15 -37 c-12 -29 -21
-38 -39 -38 -13 0 -24 2 -24 5 0 3 13 35 30 71 23 51 34 65 46 60 8 -3 22 -6
30 -6z m254 4 c0 -16 -38 -33 -71 -34 -28 0 -38 -5 -47 -25 -16 -35 -16 -35
21 -34 29 1 30 2 7 8 l-24 7 24 17 c24 17 85 24 78 10 -2 -5 -10 -25 -18 -45
-14 -38 -14 -38 -71 -38 -75 0 -89 15 -64 70 11 23 30 45 49 54 30 15 116 22
116 10z m193 -13 c16 -16 -19 -96 -49 -110 -35 -16 -89 -14 -104 4 -20 24 23
103 63 113 38 10 76 7 90 -7z m171 -2 c-12 -13 -30 -19 -61 -19 -24 0 -42 -4
-39 -8 3 -5 19 -7 36 -4 32 5 34 3 24 -22 -4 -10 -18 -16 -40 -16 -27 0 -37
-5 -46 -25 -7 -16 -19 -25 -34 -25 l-22 0 25 65 c28 69 28 69 116 72 57 2 58
1 41 -18z m216 13 c0 -14 -40 -31 -72 -32 -21 0 -38 -4 -38 -8 0 -5 14 -8 30
-7 17 1 30 1 30 -1 0 -21 -17 -34 -44 -34 -25 0 -35 -6 -44 -25 -7 -15 -20
-25 -32 -25 -11 0 -20 3 -20 6 0 15 45 110 56 120 13 11 134 16 134 6z m48
-45 c-11 -29 -23 -60 -25 -69 -5 -18 -53 -26 -53 -9 0 13 39 103 50 116 5 6
18 11 29 12 20 2 20 2 -1 -50z m173 32 c-13 -10 -38 -19 -57 -19 -23 0 -37 -6
-44 -19 -17 -32 -12 -41 23 -40 23 1 26 3 10 6 -28 5 -29 12 -5 29 20 16 72
18 72 4 0 -6 -7 -26 -14 -45 -14 -33 -17 -35 -65 -35 -27 0 -56 3 -65 6 -36
14 -4 98 45 118 17 7 52 13 77 14 l47 0 -24 -19z m84 -6 c-4 -19 -2 -23 18
-23 15 0 28 8 34 23 9 18 53 37 53 21 0 -2 -12 -33 -26 -69 -22 -55 -30 -65
-50 -65 -21 0 -23 3 -14 19 14 28 13 31 -13 31 -16 0 -28 -9 -35 -25 -7 -15
-20 -25 -32 -25 -25 0 -25 6 1 66 27 60 34 71 55 71 11 0 14 -7 9 -24z m263 8
c-2 -9 -16 -18 -32 -21 -23 -4 -32 -14 -45 -50 -12 -32 -23 -46 -39 -48 -27
-4 -28 7 -3 58 l19 40 -24 0 c-13 0 -24 4 -24 8 0 20 24 28 85 28 55 0 65 -2
63 -15z m162 14 c0 -25 -17 -35 -64 -37 -43 -1 -45 -2 -13 -5 20 -2 37 -7 37
-11 -1 -19 -19 -31 -55 -35 -40 -4 -40 -4 8 -5 50 -2 50 -2 41 -26 -5 -12 -21
-16 -75 -16 -38 0 -69 2 -69 5 0 3 13 33 28 68 l29 62 66 2 c37 1 67 0 67 -2z
m141 -12 c15 -15 -6 -73 -27 -73 -17 0 -17 -5 -4 -31 10 -17 7 -19 -19 -19
-21 0 -32 6 -36 20 -3 11 -10 20 -15 20 -5 0 -12 -9 -15 -20 -4 -13 -15 -20
-30 -20 -23 0 -24 1 -9 35 7 19 20 50 28 68 13 32 16 33 64 33 28 -1 56 -6 63
-13z m169 11 c0 -15 -38 -33 -70 -34 -30 -1 -32 -2 -17 -11 10 -6 21 -8 24 -5
9 9 43 -14 43 -29 0 -35 -38 -55 -102 -55 -60 0 -61 0 -43 20 12 13 32 21 59
22 36 1 37 2 9 5 -48 6 -61 28 -33 58 12 13 32 26 44 28 35 7 86 7 86 1z m52
-41 c-1 -30 -10 -44 -48 -80 -26 -24 -50 -41 -52 -38 -3 3 7 14 21 26 22 16
27 29 27 64 0 34 5 47 22 59 27 19 32 15 30 -31z m108 25 c15 11 32 17 43 13
16 -6 14 -10 -13 -30 -29 -21 -31 -26 -25 -62 6 -37 5 -39 -19 -39 -16 0 -26
6 -26 15 0 8 -4 15 -9 15 -5 0 -14 -7 -21 -15 -7 -8 -26 -15 -43 -15 l-31 0
39 34 c35 32 37 36 27 64 -10 29 -9 31 16 34 19 2 28 -2 32 -15 5 -18 6 -18
30 1z m207 -6 c-12 -13 -29 -42 -38 -65 -13 -33 -22 -43 -43 -45 -14 -2 -26
-1 -26 1 0 2 13 33 29 68 28 62 31 65 64 64 l36 0 -22 -23z m-101 -44 c-20
-53 -28 -64 -50 -66 -31 -4 -31 -6 -7 49 10 24 21 52 24 62 4 10 17 17 31 17
l25 0 -23 -62z m-1506 -33 c-19 -45 -19 -48 -3 -60 10 -7 21 -11 25 -9 5 3 8
1 8 -5 0 -7 8 -7 25 -1 34 13 33 6 -18 -103 -42 -88 -132 -213 -193 -267 -99
-87 -244 -182 -346 -228 -108 -49 -175 -83 -197 -99 -13 -9 9 23 48 72 85 106
147 198 189 280 16 33 40 71 52 85 13 14 38 57 56 95 27 57 30 71 17 73 -12 3
-10 8 8 28 l22 24 -209 0 c-115 0 -225 -4 -243 -10 -59 -17 -47 -2 25 31 56
25 78 30 115 26 29 -4 51 -1 58 6 8 8 14 8 19 2 11 -16 130 -19 147 -5 8 7 15
24 15 39 l1 26 13 -24 c25 -45 84 -63 141 -41 17 7 24 7 20 0 -4 -6 10 -10 34
-10 30 0 44 6 59 25 14 17 30 25 51 25 17 0 31 3 31 8 0 12 41 75 46 70 2 -3
-5 -27 -16 -53z m-817 30 c-3 -9 -8 -14 -10 -11 -3 3 -2 9 2 15 9 16 15 13 8
-4z m2248 -12 c-8 -15 -10 -15 -11 -2 0 17 10 32 18 25 2 -3 -1 -13 -7 -23z
m-2441 -53 c0 -5 -5 -10 -11 -10 -5 0 -7 5 -4 10 3 6 8 10 11 10 2 0 4 -4 4
-10z m1393 -40 c40 1 77 1 82 0 6 -2 15 -1 20 0 6 1 20 4 33 5 22 3 22 2 9
-18 -13 -20 -24 -22 -124 -25 l-110 -3 -27 -68 c-27 -68 -28 -69 -89 -96 -34
-14 -72 -36 -84 -47 -18 -17 -23 -18 -23 -6 0 9 6 21 13 27 8 6 19 29 26 51 7
22 15 38 20 36 7 -5 18 17 54 105 10 25 23 38 41 43 14 3 26 11 26 16 0 6 14
3 31 -5 20 -11 54 -16 102 -15z m-1320 -29 c8 -64 47 -141 71 -142 50 -1 181
3 184 6 2 2 -3 18 -12 36 -19 38 -20 42 -4 37 6 -2 16 -21 22 -42 l11 -38 130
1 c89 2 127 -1 120 -8 -6 -6 -61 -11 -123 -12 -124 -1 -123 0 -67 -64 24 -27
25 -28 10 -3 -12 20 -13 28 -4 34 8 4 9 3 5 -4 -5 -9 8 -12 43 -12 27 0 52 4
55 9 7 10 25 9 43 -2 8 -5 -1 -32 -32 -92 -36 -69 -66 -121 -82 -144 -4 -7
-124 39 -198 76 -139 70 -259 173 -305 263 -28 56 -19 63 12 8 l23 -43 69 -3
c56 -2 67 0 59 10 -11 13 -53 146 -53 167 0 28 18 -2 23 -38z m2237 39 c0 -5
-8 -10 -17 -10 -15 0 -16 2 -3 10 19 12 20 12 20 0z m-2397 -45 c5 -28 4 -34
-3 -20 -8 19 -14 73 -6 64 2 -2 6 -22 9 -44z m714 -77 c-3 -8 -6 -5 -6 6 -1
11 2 17 5 13 3 -3 4 -12 1 -19z m-349 5 c-10 -2 -28 -2 -40 0 -13 2 -5 4 17 4
22 1 32 -1 23 -4z m1289 -109 c-3 -3 -12 -4 -19 -1 -8 3 -5 6 6 6 11 1 17 -2
13 -5z"/>
<path d="M1858 1410 c-20 -4 -49 -15 -65 -26 l-28 -19 59 -3 c71 -4 87 1 83
27 -4 27 -6 28 -49 21z"/>
<path d="M1722 1394 c-84 -22 -96 -33 -37 -33 36 0 61 7 90 24 46 29 30 32
-53 9z"/>
<path d="M1590 1382 c-36 -9 -57 -18 -47 -20 28 -6 81 6 103 23 23 17 25 17
-56 -3z"/>
<path d="M1310 1316 c-47 -18 -103 -41 -125 -52 l-40 -19 43 -3 c30 -2 50 3
70 16 15 11 61 36 102 55 94 45 64 47 -50 3z"/>
<path d="M1420 1326 c-30 -12 -80 -36 -110 -52 l-55 -29 72 -3 c69 -3 74 -1
119 33 26 20 60 43 75 51 16 8 29 17 29 19 0 13 -82 1 -130 -19z"/>
<path d="M1520 1309 c-36 -22 -72 -47 -80 -55 -12 -12 -10 -14 20 -13 62 2 83
12 96 49 l12 35 1 -32 c1 -34 12 -45 47 -49 15 -2 28 6 40 24 9 15 28 39 42
55 l26 27 -70 -1 c-63 0 -75 -4 -134 -40z m100 -12 c0 -2 -10 -12 -22 -23
l-23 -19 19 23 c18 21 26 27 26 19z"/>
<path d="M1069 1201 c-52 -35 -139 -116 -139 -131 0 -6 24 -9 56 -9 l57 2 78
81 c44 44 79 82 79 84 0 1 -19 2 -43 2 -31 0 -56 -8 -88 -29z"/>
<path d="M1189 1195 c-48 -40 -119 -116 -119 -127 0 -5 45 -8 100 -8 l99 0 17
33 c9 17 34 53 55 79 22 26 39 48 39 50 0 2 -33 4 -73 6 -72 3 -75 2 -118 -33z"/>
<path d="M1383 1198 c-34 -37 -93 -117 -93 -128 0 -4 55 -6 123 -4 160 3 157
2 157 15 0 6 12 40 26 75 14 36 24 68 21 71 -3 2 -15 2 -26 -2 -15 -5 -21 -15
-22 -38 l-1 -32 -10 30 c-15 40 -24 45 -89 45 -49 0 -58 -3 -86 -32z m157 8
c0 -2 -7 -7 -16 -10 -8 -3 -12 -2 -9 4 6 10 25 14 25 6z"/>
<path d="M2967 1302 c34 -44 53 -50 53 -17 0 6 -4 4 -9 -4 -7 -11 -13 -7 -25
17 -9 17 -25 36 -37 42 -14 8 -9 -3 18 -38z"/>
<path d="M2860 1274 c-10 -17 -9 -27 5 -48 19 -29 30 -34 21 -10 -5 14 -4 15
9 4 18 -15 19 -7 3 19 -15 25 -4 53 18 44 12 -4 15 -3 10 5 -11 19 -54 10 -66
-14z"/>
<path d="M1650 1015 c-8 -9 -8 -15 -2 -15 12 0 26 19 19 26 -2 2 -10 -2 -17
-11z"/>
<path d="M1700 1020 c-9 -6 -10 -10 -3 -10 6 0 15 5 18 10 8 12 4 12 -15 0z"/>
<path d="M1737 1023 c-8 -12 30 -29 40 -19 4 3 -1 6 -9 6 -9 0 -18 5 -20 12
-3 9 -6 9 -11 1z"/>
<path d="M2300 1037 c0 -11 -7 -18 -17 -16 -30 3 -43 -1 -43 -11 0 -6 11 -8
28 -4 44 11 52 18 42 34 -8 13 -10 12 -10 -3z"/>
<path d="M2330 1035 c0 -8 2 -15 4 -15 2 0 6 7 10 15 3 8 1 15 -4 15 -6 0 -10
-7 -10 -15z"/>
<path d="M2360 1020 c-8 -5 -10 -10 -5 -10 6 0 17 5 25 10 8 5 11 10 5 10 -5
0 -17 -5 -25 -10z"/>
<path d="M2727 1025 c3 -8 9 -12 14 -9 12 7 11 11 -5 17 -10 4 -13 1 -9 -8z"/>
<path d="M1652 915 c-16 -34 -16 -35 11 -35 16 0 28 9 35 25 16 34 16 35 -11
35 -16 0 -28 -9 -35 -25z"/>
<path d="M2927 933 c-14 -13 -6 -20 18 -15 14 2 25 8 25 13 0 10 -34 12 -43 2z"/>
<path d="M1039 616 c-2 -3 -28 -6 -56 -7 -29 -1 -50 -6 -47 -11 3 -5 10 -5 16
-2 7 4 8 2 4 -5 -11 -16 8 -37 77 -82 84 -56 94 -60 122 -53 l26 6 -48 52
c-27 28 -57 64 -69 79 -11 15 -22 26 -25 23z"/>
<path d="M1070 608 c0 -10 81 -92 110 -111 13 -10 31 -17 40 -17 12 0 13 2 1
9 -10 6 -4 12 22 20 20 7 38 17 41 24 2 7 5 3 5 -8 1 -17 3 -17 11 -5 8 12 10
12 10 1 0 -8 2 -12 5 -9 3 3 -7 27 -22 53 l-28 48 -98 1 c-53 0 -97 -2 -97 -6z"/>
<path d="M1466 555 c-3 -8 -1 -15 4 -15 6 0 10 7 10 15 0 8 -2 15 -4 15 -2 0
-6 -7 -10 -15z"/>
<path d="M1160 430 c8 -5 20 -10 25 -10 6 0 3 5 -5 10 -8 5 -19 10 -25 10 -5
0 -3 -5 5 -10z"/>
<path d="M1210 421 c0 -6 4 -13 10 -16 6 -3 7 1 4 9 -7 18 -14 21 -14 7z"/>
<path d="M1270 385 c14 -8 30 -14 35 -14 6 0 -1 6 -15 14 -14 8 -29 14 -35 14
-5 0 1 -6 15 -14z"/>
<path d="M3206 1307 c3 -10 9 -15 12 -12 3 3 0 11 -7 18 -10 9 -11 8 -5 -6z"/>
<path d="M3081 1020 c-7 -4 1 -7 18 -8 17 0 31 1 31 3 0 7 -39 12 -49 5z"/>
<path d="M2940 799 c0 -5 5 -7 10 -4 6 3 10 8 10 11 0 2 -4 4 -10 4 -5 0 -10
-5 -10 -11z"/>
<path d="M2878 793 c7 -3 16 -2 19 1 4 3 -2 6 -13 5 -11 0 -14 -3 -6 -6z"/>
<path d="M3296 696 c-9 -19 -30 -46 -46 -60 -17 -13 -30 -31 -30 -38 0 -10 -2
-10 -9 1 -6 9 -10 3 -14 -20 -2 -19 -3 -35 -2 -37 7 -8 114 133 118 157 7 38
2 37 -17 -3z"/>
<path d="M3157 614 c3 -8 0 -14 -6 -14 -6 0 -11 -7 -11 -16 0 -8 -5 -12 -10
-9 -6 4 -8 10 -5 15 3 5 -7 5 -22 -1 -24 -9 -92 -86 -94 -107 0 -4 -18 -22
-41 -39 -48 -39 -40 -44 13 -7 20 14 53 50 73 80 36 54 55 65 74 42 13 -17 -7
-67 -39 -98 -24 -22 -24 -22 -1 -11 28 15 48 45 61 98 7 23 18 49 26 56 12 13
12 15 -5 20 -13 3 -17 1 -13 -9z"/>
<path d="M3240 531 c0 -4 -27 -35 -61 -67 -33 -32 -80 -78 -104 -101 -24 -24
-48 -43 -53 -43 -5 0 -22 -11 -38 -25 -30 -26 -62 -42 -176 -91 -37 -15 -66
-30 -64 -32 9 -8 203 81 255 116 30 20 99 81 153 136 87 87 110 116 93 116 -3
0 -5 -4 -5 -9z"/>
<path d="M2334 522 c-6 -4 -16 -18 -23 -32 l-12 -25 18 23 c13 16 24 21 37 16
13 -5 17 -3 14 6 -5 17 -20 22 -34 12z"/>
<path d="M2870 447 c-53 -37 -79 -66 -79 -87 0 -10 4 -9 10 5 6 11 32 36 60
55 27 19 57 40 67 47 14 10 14 12 2 12 -8 0 -35 -14 -60 -32z"/>
<path d="M2035 424 c-22 -7 -32 -13 -22 -13 24 -1 54 -31 40 -39 -19 -13 -11
-42 11 -42 21 0 100 82 94 97 -5 12 -78 10 -123 -3z"/>
<path d="M2174 408 c-11 -13 -28 -34 -39 -48 -20 -25 -20 -25 0 -10 11 8 26
23 33 32 7 9 19 24 28 33 8 8 11 15 6 15 -4 0 -17 -10 -28 -22z"/>
<path d="M1919 393 c-12 -16 -12 -17 1 -7 8 6 22 14 30 17 13 5 12 6 -1 6 -9
1 -23 -7 -30 -16z"/>
<path d="M2730 285 c-45 -17 -29 -18 40 0 39 9 46 13 25 13 -16 0 -46 -6 -65
-13z"/>
<path d="M2603 283 c9 -2 25 -2 35 0 9 3 1 5 -18 5 -19 0 -27 -2 -17 -5z"/>
<path d="M2508 259 c-21 -11 -38 -22 -38 -24 0 -3 15 2 32 11 18 9 44 20 58
25 20 6 21 7 5 8 -11 0 -37 -9 -57 -20z"/>
<path d="M2128 193 c7 -3 16 -2 19 1 4 3 -2 6 -13 5 -11 0 -14 -3 -6 -6z"/>
<path d="M1894 174 c-18 -14 -18 -15 4 -4 12 6 22 13 22 15 0 8 -5 6 -26 -11z"/>
<path d="M2239 164 c-22 -25 -22 -26 -3 -16 12 6 24 18 28 27 8 21 3 19 -25
-11z"/>
<path d="M2495 155 c-40 -14 -40 -14 -5 -8 19 3 42 9 50 14 22 12 1 9 -45 -6z"/>
<path d="M2058 143 c6 -2 18 -2 25 0 6 3 1 5 -13 5 -14 0 -19 -2 -12 -5z"/>
<path d="M2378 123 c7 -3 16 -2 19 1 4 3 -2 6 -13 5 -11 0 -14 -3 -6 -6z"/>
</g>
</svg>
